<svg class="b99GK-OAU7Vd-LK5yu" xmlns="http://www.w3.org/2000/svg" width="163" height="283" viewBox="0 0 163 283" fill="none"><path d="M29 105L41.5497 121.167L58 133.5L41.5497 145.833L29 162L16.4503 145.833L0 133.5L16.4503 121.167L29 105Z" fill="#80C894"></path><path d="M142 21L147.672 35.9626L163 41.5L147.672 47.0374L142 62L136.328 47.0374L121 41.5L136.328 35.9626L142 21Z" fill="#EF675C"></path><path d="M121.5 207L128.632 220.368L142 227.5L128.632 234.632L121.5 248L114.368 234.632L101 227.5L114.368 220.368L121.5 207Z" fill="#FFB600"></path><rect x="17" width="21" height="21" rx="10.5" fill="#D3E3FD"></rect><rect x="59" y="269" width="14" height="14" rx="7" fill="#FFB600"></rect></svg>