<svg xmlns="http://www.w3.org/2000/svg" width="205" height="320" viewBox="0 0 205 320" fill="none"><path d="M168 49L180.611 73.3895L205 86L180.611 98.6105L168 123L155.389 98.6105L131 86L155.389 73.3895L168 49Z" fill="#FFB600"></path><path d="M24.5 287L30.2403 297.76L41 303.5L30.2403 309.24L24.5 320L18.7597 309.24L8 303.5L18.7597 297.76L24.5 287Z" fill="#FFB600"></path><path d="M16.5 83L22.2403 93.7597L33 99.5L22.2403 105.24L16.5 116L10.7597 105.24L0 99.5L10.7597 93.7597L16.5 83Z" fill="#A8C7FA"></path><rect x="67" y="151" width="36" height="36" rx="18" fill="#EF675C"></rect><rect x="134" width="16" height="16" rx="8" fill="#FBDCDA"></rect><rect x="114" y="250" width="16" height="16" rx="8" fill="#80C894"></rect></svg>